<svg xmlns="http://www.w3.org/2000/svg" fill="none" viewBox="0 12 754.36 355.36">
<path d="M604.3 12.0566L628.357 12L628.191 82.6658L479.961 229.263L433.999 183.301L604.3 12.0566Z" fill="#35FFB8"/>
<path d="M604.3 12.0566L628.357 12L628.191 82.6658L479.961 229.263L433.999 183.301L604.3 12.0566Z" fill="url(#paint0_linear_2004_44)"/>
<path d="M126 13.3574L191 13.3574V223.357C191 223.357 146.5 194.789 149 193.286C151.5 191.782 191 223.357 191 223.357C149.074 216.173 133.853 203.196 126 159.205L126 13.3574Z" fill="#35FFB8"/>
<path d="M126 13.3574L191 13.3574V223.357C191 223.357 146.5 194.789 149 193.286C151.5 191.782 191 223.357 191 223.357C149.074 216.173 133.853 203.196 126 159.205L126 13.3574Z" fill="url(#paint1_linear_2004_44)"/>
<path d="M126 283.358L126 227.066L191 283.358V367.358H126L126 283.358Z" fill="#35FFB8"/>
<path d="M126 283.358L126 227.066L191 283.358V367.358H126L126 283.358Z" fill="url(#paint2_linear_2004_44)"/>
<path d="M101.736 126.894L101.737 94.4819L1.00002 194.97L25.7488 219.719L101.737 143.73L101.736 126.894Z" fill="#35FFB8"/>
<path d="M101.736 126.894L101.737 94.4819L1.00002 194.97L25.7488 219.719L101.737 143.73L101.736 126.894Z" fill="url(#paint3_linear_2004_44)"/>
<path d="M652.625 125.895L652.624 93.4824L753.361 193.97L728.612 218.719L652.624 142.731L652.625 125.895Z" fill="#35FFB8"/>
<path d="M652.625 125.895L652.624 93.4824L753.361 193.97L728.612 218.719L652.624 142.731L652.625 125.895Z" fill="url(#paint4_linear_2004_44)"/>
<path d="M652.5 296.358L652.499 247.261L729.612 170.361L754.361 195.109L678.5 270.857L652.5 296.358Z" fill="#35FFB8"/>
<path d="M652.5 296.358L652.499 247.261L729.612 170.361L754.361 195.109L678.5 270.857L652.5 296.358Z" fill="url(#paint5_linear_2004_44)"/>
<path d="M101.861 297.357L101.862 248.26L24.7487 171.36L-3.71713e-05 196.109L75.8606 271.857L101.861 297.357Z" fill="#35FFB8"/>
<path d="M101.861 297.357L101.862 248.26L24.7487 171.36L-3.71713e-05 196.109L75.8606 271.857L101.861 297.357Z" fill="url(#paint6_linear_2004_44)"/>
<path d="M561.996 54.3574H593.981H627.996V367.357H561.996V54.3574Z" fill="#35FFB8"/>
<path d="M561.996 54.3574H593.981H627.996V367.357H561.996V54.3574Z" fill="url(#paint7_linear_2004_44)"/>
<path d="M356.272 12.3796L332.25 12.3574L332.315 82.9222L480.124 229.098L526.086 183.137L356.272 12.3796Z" fill="#35FFB8"/>
<path d="M356.272 12.3796L332.25 12.3574L332.315 82.9222L480.124 229.098L526.086 183.137L356.272 12.3796Z" fill="url(#paint8_linear_2004_44)"/>
<path d="M399 223.357C392.09 179.583 377.602 164.748 331.5 158.357L333 223.357V367.357H399V295.357V259.357V223.357Z" fill="#35FFB8"/>
<path d="M399 223.357C392.09 179.583 377.602 164.748 331.5 158.357L333 223.357V367.357H399V295.357V259.357V223.357Z" fill="url(#paint9_linear_2004_44)"/>
<path d="M397.5 223.357C390.59 179.583 376.102 164.748 330 158.357L331.5 223.357V367.357H397.5V295.357V259.357V223.357Z" fill="#35FFB8"/>
<path d="M397.5 223.357C390.59 179.583 376.102 164.748 330 158.357L331.5 223.357V367.357H397.5V295.357V259.357V223.357Z" fill="url(#paint10_linear_2004_44)"/>
<rect x="191" y="223.357" width="65" height="141" transform="rotate(-90 191 223.357)" fill="#35FFB8"/>
<rect x="191" y="223.357" width="65" height="141" transform="rotate(-90 191 223.357)" fill="url(#paint11_linear_2004_44)"/>
<defs>
<linearGradient id="paint0_linear_2004_44" x1="639.982" y1="23.6249" x2="457.153" y2="206.454" gradientUnits="userSpaceOnUse">
<stop stop-color="#26FFFF" stop-opacity="0"/>
<stop offset="0.5" stop-color="#0DE98E" stop-opacity="0.5"/>
<stop offset="1" stop-color="#00A35F"/>
</linearGradient>
<linearGradient id="paint1_linear_2004_44" x1="158.5" y1="13.3574" x2="158.5" y2="223.357" gradientUnits="userSpaceOnUse">
<stop stop-color="#26FFFF" stop-opacity="0"/>
<stop offset="0.5" stop-color="#0DE98E" stop-opacity="0.5"/>
<stop offset="1" stop-color="#00A35F"/>
</linearGradient>
<linearGradient id="paint2_linear_2004_44" x1="158.5" y1="227.066" x2="158.5" y2="367.358" gradientUnits="userSpaceOnUse">
<stop stop-color="#26FFFF" stop-opacity="0"/>
<stop offset="0.5" stop-color="#0DE98E" stop-opacity="0.5"/>
<stop offset="1" stop-color="#00A35F"/>
</linearGradient>
<linearGradient id="paint3_linear_2004_44" x1="113.987" y1="106.732" x2="13.3744" y2="207.344" gradientUnits="userSpaceOnUse">
<stop stop-color="#26FFFF" stop-opacity="0"/>
<stop offset="0.5" stop-color="#0DE98E" stop-opacity="0.5"/>
<stop offset="1" stop-color="#00A35F"/>
</linearGradient>
<linearGradient id="paint4_linear_2004_44" x1="640.374" y1="105.732" x2="740.986" y2="206.345" gradientUnits="userSpaceOnUse">
<stop stop-color="#26FFFF" stop-opacity="0"/>
<stop offset="0.5" stop-color="#0DE98E" stop-opacity="0.5"/>
<stop offset="1" stop-color="#00A35F"/>
</linearGradient>
<linearGradient id="paint5_linear_2004_44" x1="640.379" y1="284.237" x2="741.933" y2="182.682" gradientUnits="userSpaceOnUse">
<stop stop-color="#26FFFF" stop-opacity="0"/>
<stop offset="0.5" stop-color="#0DE98E" stop-opacity="0.5"/>
<stop offset="1" stop-color="#00A35F"/>
</linearGradient>
<linearGradient id="paint6_linear_2004_44" x1="113.982" y1="285.236" x2="12.4274" y2="183.681" gradientUnits="userSpaceOnUse">
<stop stop-color="#26FFFF" stop-opacity="0"/>
<stop offset="0.5" stop-color="#0DE98E" stop-opacity="0.5"/>
<stop offset="1" stop-color="#00A35F"/>
</linearGradient>
<linearGradient id="paint7_linear_2004_44" x1="594.996" y1="54.3574" x2="594.996" y2="367.357" gradientUnits="userSpaceOnUse">
<stop stop-color="#26FFFF" stop-opacity="0"/>
<stop offset="0.5" stop-color="#0DE98E" stop-opacity="0.5"/>
<stop offset="1" stop-color="#00A35F"/>
</linearGradient>
<linearGradient id="paint8_linear_2004_44" x1="320.625" y1="23.9823" x2="502.933" y2="206.29" gradientUnits="userSpaceOnUse">
<stop stop-color="#26FFFF" stop-opacity="0"/>
<stop offset="0.5" stop-color="#0DE98E" stop-opacity="0.5"/>
<stop offset="1" stop-color="#00A35F"/>
</linearGradient>
<linearGradient id="paint9_linear_2004_44" x1="364.5" y1="158.357" x2="364.5" y2="367.357" gradientUnits="userSpaceOnUse">
<stop stop-color="#26FFFF" stop-opacity="0"/>
<stop offset="0.5" stop-color="#0DE98E" stop-opacity="0.5"/>
<stop offset="1" stop-color="#00A35F"/>
</linearGradient>
<linearGradient id="paint10_linear_2004_44" x1="364.5" y1="158.357" x2="364.5" y2="367.357" gradientUnits="userSpaceOnUse">
<stop stop-color="#26FFFF" stop-opacity="0"/>
<stop offset="0.5" stop-color="#0DE98E" stop-opacity="0.5"/>
<stop offset="1" stop-color="#00A35F"/>
</linearGradient>
<linearGradient id="paint11_linear_2004_44" x1="223.5" y1="223.357" x2="223.5" y2="364.357" gradientUnits="userSpaceOnUse">
<stop stop-color="#26FFFF" stop-opacity="0"/>
<stop offset="0.5" stop-color="#0DE98E" stop-opacity="0.5"/>
<stop offset="1" stop-color="#00A35F"/>
</linearGradient>
</defs>
</svg>