<svg xmlns="http://www.w3.org/2000/svg" fill="none" viewBox="0 12 502.36 355.36">
<path d="M478.3 12.0566L502.357 12L502.191 82.6658L353.961 229.263L307.999 183.301L478.3 12.0566Z" fill="url(#paint0_linear_2004_44)"/>
<path d="M0 13.3574L65 13.3574L65 223.357C65 223.357 20.5 194.789 23 193.286C25.5 191.782 65 223.357 65 223.357C23.0743 216.173 7.85289 203.196 0 159.205L0 13.3574Z" fill="url(#paint1_linear_2004_44)"/>
<path d="M0 283.358L0 227.066L65 283.358L65 367.358H0L0 283.358Z" fill="url(#paint2_linear_2004_44)"/>
<rect width="66" height="313" transform="translate(435.996 54.3574)" fill="url(#paint3_linear_2004_44)"/>
<path d="M230.272 12.3795L206.25 12.3573L206.315 82.9221L354.124 229.098L400.086 183.137L230.272 12.3795Z" fill="url(#paint4_linear_2004_44)"/>
<path d="M273 223.357C266.09 179.583 251.602 164.748 205.5 158.357L207 223.357V367.357H273V295.357V259.357V223.357Z" fill="url(#paint5_linear_2004_44)"/>
<path d="M271.5 223.357C264.59 179.583 250.102 164.748 204 158.357L205.5 223.357V367.357H271.5V295.357V259.357V223.357Z" fill="url(#paint6_linear_2004_44)"/>
<rect x="65" y="223.357" width="65" height="141" transform="rotate(-90 65 223.357)" fill="url(#paint7_linear_2004_44)"/>
<defs>
<linearGradient id="paint0_linear_2004_44" x1="513.982" y1="23.6249" x2="331.153" y2="206.454" gradientUnits="userSpaceOnUse">
<stop stop-color="#36FF9A"/>
<stop offset="0.5" stop-color="#36FF9A"/>
<stop offset="1" stop-color="#066535"/>
</linearGradient>
<linearGradient id="paint1_linear_2004_44" x1="32.5" y1="13.3574" x2="32.5" y2="223.357" gradientUnits="userSpaceOnUse">
<stop stop-color="#36FF9A"/>
<stop offset="0.5" stop-color="#36FF9A"/>
<stop offset="1" stop-color="#066535"/>
</linearGradient>
<linearGradient id="paint2_linear_2004_44" x1="32.5" y1="227.066" x2="32.5" y2="367.358" gradientUnits="userSpaceOnUse">
<stop stop-color="#36FF9A"/>
<stop offset="0.5" stop-color="#36FF9A"/>
<stop offset="1" stop-color="#066535"/>
</linearGradient>
<linearGradient id="paint3_linear_2004_44" x1="33" y1="0" x2="33" y2="313" gradientUnits="userSpaceOnUse">
<stop stop-color="#36FF9A"/>
<stop offset="0.5" stop-color="#36FF9A"/>
<stop offset="1" stop-color="#066535"/>
</linearGradient>
<linearGradient id="paint4_linear_2004_44" x1="194.625" y1="23.9823" x2="376.933" y2="206.29" gradientUnits="userSpaceOnUse">
<stop stop-color="#36FF9A"/>
<stop offset="0.5" stop-color="#36FF9A"/>
<stop offset="1" stop-color="#066535"/>
</linearGradient>
<linearGradient id="paint5_linear_2004_44" x1="238.5" y1="158.357" x2="238.5" y2="367.357" gradientUnits="userSpaceOnUse">
<stop stop-color="#36FF9A"/>
<stop offset="0.5" stop-color="#36FF9A"/>
<stop offset="1" stop-color="#066535"/>
</linearGradient>
<linearGradient id="paint6_linear_2004_44" x1="238.5" y1="158.357" x2="238.5" y2="367.357" gradientUnits="userSpaceOnUse">
<stop stop-color="#36FF9A"/>
<stop offset="0.5" stop-color="#36FF9A"/>
<stop offset="1" stop-color="#066535"/>
</linearGradient>
<linearGradient id="paint7_linear_2004_44" x1="97.5" y1="223.357" x2="97.5" y2="364.357" gradientUnits="userSpaceOnUse">
<stop stop-color="#36FF9A"/>
<stop offset="0.5" stop-color="#36FF9A"/>
<stop offset="1" stop-color="#066535"/>
</linearGradient>
</defs>
</svg>